# xmcd
#
# Track frame offsets: 
#        150
#        16733
#        60383
#        88800
#        134060
#        173236
#
# Disc length: 2709 seconds
#
# Revision: 0
# Processed by: cddbd v1.5.2PL0 Copyright (c) Steve Scherf et al.
# Submitted via: ExactAudioCopy v0.95b4
#
DISCID=490a9306
DTITLE=Just us - What a night
DYEAR=1900
DGENRE=
TTITLE0=radio edit
TTITLE1=angel moraes and ronnie ventura´s original
TTITLE2=kings of soul filter vox
TTITLE3=tee´s inhouse dub
TTITLE4=kings of soul dub
TTITLE5=enhanced video
EXTD=
EXTT0=
EXTT1=
EXTT2=
EXTT3=
EXTT4=
EXTT5=
PLAYORDER=
